<svg width="138" height="14" viewBox="0 0 138 14" fill="none" xmlns="http://www.w3.org/2000/svg">
<path d="M5.27078 8.22505C5.27078 7.82334 5.12851 7.51368 4.84396 7.29608C4.56359 7.07849 4.05517 6.8588 3.31869 6.63702C2.58221 6.41524 1.99638 6.16835 1.56118 5.89635C0.728458 5.37328 0.312096 4.6912 0.312096 3.85011C0.312096 3.11363 0.611291 2.50687 1.20968 2.02983C1.81226 1.5528 2.59267 1.31428 3.55093 1.31428C4.18698 1.31428 4.75399 1.43144 5.25195 1.66578C5.74991 1.90011 6.14117 2.23488 6.42572 2.67007C6.71026 3.10108 6.85254 3.58021 6.85254 4.10746H5.27078C5.27078 3.63042 5.12014 3.258 4.81885 2.99019C4.52175 2.71819 4.09492 2.58219 3.53838 2.58219C3.0195 2.58219 2.61569 2.69308 2.32695 2.91486C2.04241 3.13665 1.90013 3.4463 1.90013 3.84383C1.90013 4.1786 2.05496 4.45896 2.36462 4.68493C2.67427 4.90671 3.18479 5.1243 3.89616 5.33772C4.60753 5.54694 5.17872 5.78755 5.60973 6.05955C6.04074 6.32736 6.35667 6.63702 6.55753 6.98852C6.75839 7.33584 6.85882 7.74383 6.85882 8.2125C6.85882 8.97408 6.5659 9.58084 5.98006 10.0328C5.39841 10.4805 4.60753 10.7044 3.60742 10.7044C2.94627 10.7044 2.33742 10.583 1.78087 10.3403C1.22851 10.0935 0.797503 9.7545 0.487847 9.32349C0.182375 8.89249 0.0296394 8.39034 0.0296394 7.81706H1.61767C1.61767 8.33594 1.78924 8.73766 2.13237 9.02221C2.47551 9.30676 2.96719 9.44903 3.60742 9.44903C4.15978 9.44903 4.57405 9.33814 4.85023 9.11636C5.1306 8.89039 5.27078 8.59329 5.27078 8.22505ZM12.1627 10.5789C12.0958 10.4491 12.0372 10.2378 11.987 9.9449C11.5016 10.4512 10.9074 10.7044 10.2044 10.7044C9.52228 10.7044 8.96573 10.5098 8.53473 10.1206C8.10372 9.73149 7.88821 9.25026 7.88821 8.67698C7.88821 7.95306 8.15602 7.3986 8.69165 7.01363C9.23145 6.62446 10.0014 6.42988 11.0015 6.42988H11.9368V5.98423C11.9368 5.63273 11.8384 5.35236 11.6417 5.14313C11.4451 4.92972 11.1459 4.82302 10.7442 4.82302C10.3968 4.82302 10.1123 4.91089 9.89052 5.08664C9.66874 5.25821 9.55785 5.4779 9.55785 5.74571H8.03258C8.03258 5.37328 8.15602 5.02597 8.40291 4.70376C8.6498 4.37736 8.98456 4.12211 9.4072 3.93799C9.83403 3.75387 10.309 3.66181 10.832 3.66181C11.6271 3.66181 12.2611 3.86266 12.7339 4.26438C13.2068 4.66191 13.4495 5.22264 13.462 5.94657V9.00965C13.462 9.6206 13.5478 10.1081 13.7194 10.4722V10.5789H12.1627ZM10.4868 9.48041C10.7881 9.48041 11.0706 9.40719 11.3342 9.26073C11.602 9.11427 11.8029 8.91759 11.9368 8.67071V7.39023H11.1145C10.5496 7.39023 10.1249 7.48857 9.8403 7.68525C9.55575 7.88192 9.41348 8.16019 9.41348 8.52006C9.41348 8.81298 9.50972 9.04731 9.70221 9.22307C9.89889 9.39463 10.1604 9.48041 10.4868 9.48041ZM17.3537 8.6456L18.791 3.78734H20.3665L18.0127 10.5789H16.6883L14.3157 3.78734H15.8974L17.3537 8.6456ZM24.2268 10.7044C23.2601 10.7044 22.4755 10.401 21.873 9.79426C21.2746 9.18331 20.9754 8.37151 20.9754 7.35885V7.17055C20.9754 6.49265 21.1051 5.88798 21.3645 5.35655C21.6282 4.82092 21.9964 4.40456 22.4693 4.10746C22.9421 3.81036 23.4694 3.66181 24.051 3.66181C24.9758 3.66181 25.6893 3.95682 26.1914 4.54684C26.6977 5.13686 26.9509 5.97167 26.9509 7.05129V7.66641H22.5132C22.5592 8.22714 22.7454 8.67071 23.0718 8.9971C23.4024 9.32349 23.8167 9.48669 24.3146 9.48669C25.0135 9.48669 25.5826 9.20423 26.0219 8.63932L26.8442 9.42392C26.5722 9.82982 26.2081 10.1458 25.752 10.3717C25.3001 10.5935 24.7917 10.7044 24.2268 10.7044ZM24.0447 4.88579C23.6263 4.88579 23.2873 5.03224 23.0279 5.32516C22.7726 5.61808 22.6094 6.02607 22.5383 6.54914H25.4445V6.43616C25.411 5.92564 25.275 5.54067 25.0365 5.28122C24.798 5.0176 24.4674 4.88579 24.0447 4.88579ZM32.7758 3.78734L32.8197 4.49662C33.2968 3.94008 33.9496 3.66181 34.7781 3.66181C35.6861 3.66181 36.3075 4.00912 36.6423 4.70376C37.1361 4.00912 37.8307 3.66181 38.7262 3.66181C39.4752 3.66181 40.0318 3.86894 40.3958 4.28321C40.7641 4.69748 40.9524 5.30842 40.9608 6.11604V10.5789H39.4355V6.15998C39.4355 5.72897 39.3413 5.41304 39.153 5.21218C38.9647 5.01132 38.653 4.91089 38.2178 4.91089C37.8705 4.91089 37.5859 5.00504 37.3641 5.19335C37.1465 5.37747 36.9938 5.62017 36.9059 5.92146L36.9122 10.5789H35.3869V6.10976C35.366 5.31052 34.958 4.91089 34.163 4.91089C33.552 4.91089 33.1189 5.15987 32.8637 5.65783V10.5789H31.3384V3.78734H32.7758ZM42.2412 7.12033C42.2412 6.45499 42.373 5.8566 42.6367 5.32516C42.9003 4.78954 43.2706 4.37946 43.7477 4.09491C44.2247 3.80617 44.7729 3.66181 45.3922 3.66181C46.3086 3.66181 47.0514 3.95682 47.6205 4.54684C48.1937 5.13686 48.5034 5.91937 48.5494 6.89437L48.5557 7.25214C48.5557 7.92167 48.426 8.52006 48.1665 9.04731C47.9113 9.57457 47.543 9.98256 47.0618 10.2713C46.5848 10.56 46.0324 10.7044 45.4047 10.7044C44.4465 10.7044 43.6786 10.3864 43.1012 9.75032C42.5279 9.11008 42.2412 8.25853 42.2412 7.19565V7.12033ZM43.7665 7.25214C43.7665 7.95096 43.9109 8.49914 44.1996 8.89667C44.4883 9.29002 44.89 9.48669 45.4047 9.48669C45.9194 9.48669 46.3191 9.28583 46.6036 8.88412C46.8924 8.4824 47.0367 7.89447 47.0367 7.12033C47.0367 6.43407 46.8882 5.89008 46.5911 5.48836C46.2981 5.08664 45.8985 4.88579 45.3922 4.88579C44.8942 4.88579 44.4988 5.08455 44.2059 5.48208C43.913 5.87543 43.7665 6.46545 43.7665 7.25214ZM51.261 3.78734L51.305 4.57194C51.8071 3.96519 52.4662 3.66181 53.2821 3.66181C54.6965 3.66181 55.4163 4.47152 55.4414 6.09093V10.5789H53.9161V6.17881C53.9161 5.7478 53.822 5.42978 53.6337 5.22473C53.4495 5.01551 53.1462 4.91089 52.7235 4.91089C52.1084 4.91089 51.6502 5.18916 51.3489 5.74571V10.5789H49.8236V3.78734H51.261ZM59.9921 10.7044C59.0254 10.7044 58.2408 10.401 57.6383 9.79426C57.0399 9.18331 56.7407 8.37151 56.7407 7.35885V7.17055C56.7407 6.49265 56.8704 5.88798 57.1298 5.35655C57.3935 4.82092 57.7617 4.40456 58.2346 4.10746C58.7074 3.81036 59.2347 3.66181 59.8163 3.66181C60.7411 3.66181 61.4546 3.95682 61.9567 4.54684C62.463 5.13686 62.7162 5.97167 62.7162 7.05129V7.66641H58.2785C58.3245 8.22714 58.5107 8.67071 58.8371 8.9971C59.1677 9.32349 59.582 9.48669 60.0799 9.48669C60.7788 9.48669 61.3479 9.20423 61.7872 8.63932L62.6095 9.42392C62.3375 9.82982 61.9734 10.1458 61.5173 10.3717C61.0654 10.5935 60.557 10.7044 59.9921 10.7044ZM59.81 4.88579C59.3916 4.88579 59.0526 5.03224 58.7932 5.32516C58.5379 5.61808 58.3747 6.02607 58.3036 6.54914H61.2098V6.43616C61.1763 5.92564 61.0403 5.54067 60.8018 5.28122C60.5633 5.0176 60.2327 4.88579 59.81 4.88579ZM66.1936 8.39453L67.5745 3.78734H69.2002L66.5011 11.6083C66.0869 12.7506 65.3838 13.3218 64.3921 13.3218C64.1703 13.3218 63.9255 13.2842 63.6577 13.2088V12.0288L63.9465 12.0476C64.3314 12.0476 64.6202 11.9765 64.8127 11.8342C65.0093 11.6961 65.1642 11.4618 65.2771 11.1312L65.4968 10.5475L63.1116 3.78734H64.7562L66.1936 8.39453ZM69.9785 8.97199C70.263 8.97199 70.4827 9.05359 70.6375 9.21679C70.7924 9.3758 70.8698 9.57666 70.8698 9.81936C70.8698 10.0579 70.7924 10.2566 70.6375 10.4157C70.4827 10.5705 70.263 10.6479 69.9785 10.6479C69.7065 10.6479 69.491 10.5705 69.332 10.4157C69.173 10.2608 69.0934 10.0621 69.0934 9.81936C69.0934 9.57666 69.1709 9.3758 69.3257 9.21679C69.4805 9.05359 69.6981 8.97199 69.9785 8.97199ZM77.5546 9.31094H81.7036V10.5789H75.9666V1.43981H77.5546V9.31094ZM84.3963 10.5789H82.8711V3.78734H84.3963V10.5789ZM82.7769 2.02356C82.7769 1.78922 82.8501 1.59464 82.9966 1.43981C83.1472 1.28499 83.3606 1.20757 83.6368 1.20757C83.913 1.20757 84.1264 1.28499 84.2771 1.43981C84.4277 1.59464 84.503 1.78922 84.503 2.02356C84.503 2.25371 84.4277 2.4462 84.2771 2.60102C84.1264 2.75167 83.913 2.82699 83.6368 2.82699C83.3606 2.82699 83.1472 2.75167 82.9966 2.60102C82.8501 2.4462 82.7769 2.25371 82.7769 2.02356ZM88.4574 8.6456L89.8948 3.78734H91.4703L89.1165 10.5789H87.7921L85.4194 3.78734H87.0012L88.4574 8.6456ZM95.3305 10.7044C94.3639 10.7044 93.5793 10.401 92.9767 9.79426C92.3783 9.18331 92.0791 8.37151 92.0791 7.35885V7.17055C92.0791 6.49265 92.2089 5.88798 92.4683 5.35655C92.7319 4.82092 93.1002 4.40456 93.573 4.10746C94.0459 3.81036 94.5731 3.66181 95.1548 3.66181C96.0796 3.66181 96.793 3.95682 97.2952 4.54684C97.8015 5.13686 98.0547 5.97167 98.0547 7.05129V7.66641H93.617C93.663 8.22714 93.8492 8.67071 94.1756 8.9971C94.5062 9.32349 94.9205 9.48669 95.4184 9.48669C96.1172 9.48669 96.6863 9.20423 97.1257 8.63932L97.948 9.42392C97.676 9.82982 97.3119 10.1458 96.8558 10.3717C96.4039 10.5935 95.8955 10.7044 95.3305 10.7044ZM95.1485 4.88579C94.7301 4.88579 94.3911 5.03224 94.1317 5.32516C93.8764 5.61808 93.7132 6.02607 93.6421 6.54914H96.5482V6.43616C96.5148 5.92564 96.3788 5.54067 96.1402 5.28122C95.9017 5.0176 95.5712 4.88579 95.1485 4.88579ZM108.405 7.25214C108.405 8.30665 108.169 9.14565 107.696 9.76915C107.227 10.3926 106.581 10.7044 105.756 10.7044C104.961 10.7044 104.342 10.4178 103.898 9.84447L103.823 10.5789H102.442V0.937668H103.967V4.44013C104.407 3.92125 104.999 3.66181 105.744 3.66181C106.572 3.66181 107.223 3.96937 107.696 4.5845C108.169 5.19963 108.405 6.05955 108.405 7.16427V7.25214ZM106.88 7.12033C106.88 6.38385 106.75 5.83149 106.491 5.46325C106.231 5.09501 105.855 4.91089 105.361 4.91089C104.7 4.91089 104.235 5.19963 103.967 5.77709V8.57655C104.239 9.16657 104.708 9.46158 105.373 9.46158C105.85 9.46158 106.219 9.28374 106.478 8.92805C106.738 8.57237 106.872 8.03465 106.88 7.31491V7.12033ZM112.68 10.7044C111.713 10.7044 110.928 10.401 110.326 9.79426C109.727 9.18331 109.428 8.37151 109.428 7.35885V7.17055C109.428 6.49265 109.558 5.88798 109.817 5.35655C110.081 4.82092 110.449 4.40456 110.922 4.10746C111.395 3.81036 111.922 3.66181 112.504 3.66181C113.429 3.66181 114.142 3.95682 114.644 4.54684C115.151 5.13686 115.404 5.97167 115.404 7.05129V7.66641H110.966C111.012 8.22714 111.198 8.67071 111.525 8.9971C111.855 9.32349 112.27 9.48669 112.768 9.48669C113.466 9.48669 114.035 9.20423 114.475 8.63932L115.297 9.42392C115.025 9.82982 114.661 10.1458 114.205 10.3717C113.753 10.5935 113.245 10.7044 112.68 10.7044ZM112.498 4.88579C112.079 4.88579 111.74 5.03224 111.481 5.32516C111.226 5.61808 111.062 6.02607 110.991 6.54914H113.897V6.43616C113.864 5.92564 113.728 5.54067 113.489 5.28122C113.251 5.0176 112.92 4.88579 112.498 4.88579ZM118.505 2.13654V3.78734H119.703V4.91717H118.505V8.70837C118.505 8.96781 118.555 9.15611 118.655 9.27328C118.76 9.38626 118.944 9.44275 119.208 9.44275C119.383 9.44275 119.561 9.42183 119.741 9.37999V10.56C119.394 10.6563 119.059 10.7044 118.737 10.7044C117.565 10.7044 116.979 10.0579 116.979 8.76486V4.91717H115.862V3.78734H116.979V2.13654H118.505ZM122.785 2.13654V3.78734H123.984V4.91717H122.785V8.70837C122.785 8.96781 122.836 9.15611 122.936 9.27328C123.041 9.38626 123.225 9.44275 123.488 9.44275C123.664 9.44275 123.842 9.42183 124.022 9.37999V10.56C123.675 10.6563 123.34 10.7044 123.018 10.7044C121.846 10.7044 121.26 10.0579 121.26 8.76486V4.91717H120.143V3.78734H121.26V2.13654H122.785ZM128.146 10.7044C127.179 10.7044 126.395 10.401 125.792 9.79426C125.194 9.18331 124.894 8.37151 124.894 7.35885V7.17055C124.894 6.49265 125.024 5.88798 125.284 5.35655C125.547 4.82092 125.915 4.40456 126.388 4.10746C126.861 3.81036 127.388 3.66181 127.97 3.66181C128.895 3.66181 129.608 3.95682 130.11 4.54684C130.617 5.13686 130.87 5.97167 130.87 7.05129V7.66641H126.432C126.478 8.22714 126.664 8.67071 126.991 8.9971C127.321 9.32349 127.736 9.48669 128.234 9.48669C128.932 9.48669 129.502 9.20423 129.941 8.63932L130.763 9.42392C130.491 9.82982 130.127 10.1458 129.671 10.3717C129.219 10.5935 128.711 10.7044 128.146 10.7044ZM127.964 4.88579C127.545 4.88579 127.206 5.03224 126.947 5.32516C126.692 5.61808 126.528 6.02607 126.457 6.54914H129.363V6.43616C129.33 5.92564 129.194 5.54067 128.955 5.28122C128.717 5.0176 128.386 4.88579 127.964 4.88579ZM135.615 5.1808C135.414 5.14732 135.207 5.13058 134.994 5.13058C134.295 5.13058 133.824 5.39839 133.581 5.93401V10.5789H132.056V3.78734H133.512L133.55 4.54684C133.918 3.95682 134.429 3.66181 135.082 3.66181C135.299 3.66181 135.479 3.6911 135.621 3.74968L135.615 5.1808ZM136.437 8.97199C136.722 8.97199 136.942 9.05359 137.096 9.21679C137.251 9.3758 137.329 9.57666 137.329 9.81936C137.329 10.0579 137.251 10.2566 137.096 10.4157C136.942 10.5705 136.722 10.6479 136.437 10.6479C136.165 10.6479 135.95 10.5705 135.791 10.4157C135.632 10.2608 135.552 10.0621 135.552 9.81936C135.552 9.57666 135.63 9.3758 135.785 9.21679C135.939 9.05359 136.157 8.97199 136.437 8.97199Z" fill="#006BC2"/>
</svg>
