<svg width="47" height="39" viewBox="0 0 47 39" fill="none" xmlns="http://www.w3.org/2000/svg">
<path d="M16.8633 28.9922H39.6562C40.418 28.9922 41.082 28.3672 41.082 27.5273C41.082 26.6875 40.418 26.0625 39.6562 26.0625H17.1953C16.082 26.0625 15.3984 25.2812 15.2227 24.0898L14.9102 22.0391H39.6953C42.5469 22.0391 44.0117 20.2812 44.4219 17.4883L45.9844 7.15625C46.0234 6.90234 46.0625 6.58984 46.0625 6.41406C46.0625 5.47656 45.3594 4.83203 44.2852 4.83203H12.3906L12.0195 2.35156C11.8242 0.847656 11.2773 0.0859375 9.28516 0.0859375H2.42969C1.64844 0.0859375 0.984375 0.769531 0.984375 1.55078C0.984375 2.35156 1.64844 3.03516 2.42969 3.03516H9.03125L12.1562 24.4805C12.5664 27.2539 14.0312 28.9922 16.8633 28.9922ZM42.7422 7.78125L41.3555 17.1367C41.1992 18.3477 40.5547 19.0898 39.4023 19.0898L14.4805 19.1094L12.8203 7.78125H42.7422ZM18.4062 38.4844C20.1641 38.4844 21.5703 37.0977 21.5703 35.3203C21.5703 33.5625 20.1641 32.1562 18.4062 32.1562C16.6289 32.1562 15.2227 33.5625 15.2227 35.3203C15.2227 37.0977 16.6289 38.4844 18.4062 38.4844ZM36.668 38.4844C38.4453 38.4844 39.8516 37.0977 39.8516 35.3203C39.8516 33.5625 38.4453 32.1562 36.668 32.1562C34.9102 32.1562 33.4844 33.5625 33.4844 35.3203C33.4844 37.0977 34.9102 38.4844 36.668 38.4844Z" fill="#0072CE"/>
</svg>
