<svg width="159" height="19" viewBox="0 0 159 19" fill="none" xmlns="http://www.w3.org/2000/svg">
<path d="M78.5 9C78.5 4.30558 82.3056 0.5 87 0.5H88C92.6944 0.5 96.5 4.30558 96.5 9V10C96.5 14.6944 92.6944 18.5 88 18.5H87C82.3056 18.5 78.5 14.6944 78.5 10V9Z" stroke="#666666"/>
<path d="M140.5 9C140.5 4.30558 144.306 0.5 149 0.5H150C154.694 0.5 158.5 4.30558 158.5 9V10C158.5 14.6944 154.694 18.5 150 18.5H149C144.306 18.5 140.5 14.6944 140.5 10V9Z" stroke="#666666"/>
<path d="M109.5 9C109.5 4.30558 113.306 0.5 118 0.5H119C123.694 0.5 127.5 4.30558 127.5 9V10C127.5 14.6944 123.694 18.5 119 18.5H118C113.306 18.5 109.5 14.6944 109.5 10V9Z" stroke="#666666"/>
<path d="M47.5 9C47.5 4.30558 51.3056 0.5 56 0.5H57C61.6944 0.5 65.5 4.30558 65.5 9V10C65.5 14.6944 61.6944 18.5 57 18.5H56C51.3056 18.5 47.5 14.6944 47.5 10V9Z" fill="#507B22" stroke="#507B22"/>
<path d="M0.5 8C0.5 3.85786 3.85786 0.5 8 0.5H27C31.1421 0.5 34.5 3.85786 34.5 8V11C34.5 15.1421 31.1421 18.5 27 18.5H8C3.85786 18.5 0.5 15.1421 0.5 11V8Z" fill="#507B22" stroke="#507B22"/>
<rect x="15" y="5" width="2" height="8" fill="white"/>
<rect x="19" y="5" width="2" height="8" fill="white"/>
</svg>
