<svg width="200" height="53" viewBox="0 0 200 53" fill="none" xmlns="http://www.w3.org/2000/svg">
<path d="M0 6.25C0 2.79822 2.79822 0 6.25 0H193.75C197.202 0 200 2.79822 200 6.25V52.5H0V6.25Z" fill="#0072CE"/>
<path d="M178.721 35.6929C179.026 35.6929 179.331 35.5708 179.539 35.3389L188.987 25.6587C189.194 25.4512 189.316 25.1826 189.316 24.8774C189.316 24.2427 188.84 23.7544 188.206 23.7544C187.9 23.7544 187.62 23.8765 187.412 24.0718L178.721 32.9585L170.017 24.0718C169.822 23.8765 169.541 23.7544 169.224 23.7544C168.589 23.7544 168.113 24.2427 168.113 24.8774C168.113 25.1826 168.235 25.4512 168.442 25.6709L177.891 35.3389C178.123 35.5708 178.403 35.6929 178.721 35.6929Z" fill="white"/>
<path d="M19.4282 35V19.0039H24.3501C25.7563 19.0039 27.0125 19.3225 28.1184 19.9597C29.2317 20.5896 30.0996 21.4905 30.7222 22.6624C31.3447 23.8269 31.656 25.1526 31.656 26.6394V27.3755C31.656 28.8623 31.3484 30.1843 30.7332 31.3416C30.1252 32.4988 29.2646 33.396 28.1514 34.0332C27.0381 34.6704 25.782 34.9927 24.3831 35H19.4282ZM22.7241 21.6736V32.3523H24.3171C25.6062 32.3523 26.5913 31.9312 27.2725 31.0889C27.9536 30.2466 28.3015 29.0417 28.3162 27.4744V26.6284C28.3162 25.0024 27.9792 23.772 27.3054 22.937C26.6316 22.0947 25.6465 21.6736 24.3501 21.6736H22.7241ZM39.3245 35.2197C37.5813 35.2197 36.1604 34.6851 35.0618 33.6157C33.9705 32.5464 33.4248 31.1218 33.4248 29.342V29.0344C33.4248 27.8406 33.6555 26.7749 34.1169 25.8374C34.5784 24.8926 35.2302 24.1675 36.0725 23.6621C36.9221 23.1494 37.8889 22.8931 38.9729 22.8931C40.5989 22.8931 41.877 23.4058 42.8071 24.4312C43.7446 25.4565 44.2134 26.9104 44.2134 28.7927V30.0891H36.6438C36.7463 30.8655 37.054 31.488 37.5667 31.9568C38.0867 32.4255 38.7422 32.6599 39.5332 32.6599C40.7563 32.6599 41.7122 32.2168 42.4006 31.3306L43.9607 33.0774C43.4846 33.7512 42.8401 34.2786 42.0271 34.6594C41.2141 35.033 40.3132 35.2197 39.3245 35.2197ZM38.9619 25.4639C38.332 25.4639 37.8193 25.6763 37.4238 26.1011C37.0356 26.5259 36.7866 27.1338 36.6768 27.9248H41.0933V27.6721C41.0786 26.969 40.8882 26.427 40.522 26.0461C40.1558 25.658 39.6357 25.4639 38.9619 25.4639ZM56.7268 29.1663C56.7268 30.9973 56.3093 32.4658 55.4744 33.5718C54.6467 34.6704 53.5261 35.2197 52.1125 35.2197C50.9114 35.2197 49.9409 34.8022 49.2012 33.9673V39.5703H46.0261V23.1128H48.9705L49.0803 24.2773C49.8494 23.3545 50.8528 22.8931 52.0906 22.8931C53.5554 22.8931 54.6943 23.4351 55.5073 24.519C56.3203 25.603 56.7268 27.0972 56.7268 29.0015V29.1663ZM53.5518 28.9355C53.5518 27.8296 53.354 26.9763 52.9585 26.3757C52.5703 25.7751 52.0027 25.4749 51.2556 25.4749C50.2595 25.4749 49.5747 25.8557 49.2012 26.6174V31.4844C49.5894 32.2681 50.2815 32.6599 51.2776 32.6599C52.7937 32.6599 53.5518 31.4185 53.5518 28.9355ZM65.5928 35C65.4463 34.7144 65.3401 34.3591 65.2742 33.9343C64.5051 34.7913 63.5054 35.2197 62.2749 35.2197C61.1104 35.2197 60.1436 34.8828 59.3745 34.209C58.6128 33.5352 58.2319 32.6855 58.2319 31.6602C58.2319 30.4004 58.697 29.4336 59.6272 28.7598C60.5647 28.0859 61.916 27.7454 63.6812 27.738H65.1423V27.0569C65.1423 26.5076 64.9995 26.0681 64.7139 25.7385C64.4355 25.4089 63.9924 25.2441 63.3845 25.2441C62.8499 25.2441 62.4287 25.3723 62.1211 25.6287C61.8208 25.885 61.6707 26.2366 61.6707 26.6833H58.4956C58.4956 25.9949 58.708 25.3577 59.1328 24.7717C59.5576 24.1858 60.1582 23.728 60.9346 23.3984C61.7109 23.0615 62.5825 22.8931 63.5493 22.8931C65.0142 22.8931 66.175 23.2629 67.032 24.0027C67.8962 24.7351 68.3284 25.7678 68.3284 27.1008V32.2534C68.3357 33.3813 68.4932 34.2346 68.8008 34.8132V35H65.5928ZM62.967 32.7917C63.4358 32.7917 63.8679 32.6892 64.2634 32.4841C64.6589 32.2717 64.9519 31.9897 65.1423 31.6382V29.5947H63.9558C62.3665 29.5947 61.5205 30.144 61.418 31.2427L61.407 31.4294C61.407 31.825 61.5461 32.1509 61.8245 32.4072C62.1028 32.6636 62.4836 32.7917 62.967 32.7917ZM77.447 26.0901C77.0149 26.0315 76.634 26.0022 76.3044 26.0022C75.1033 26.0022 74.3159 26.4087 73.9424 27.2217V35H70.7673V23.1128H73.7666L73.8545 24.53C74.4917 23.4387 75.3743 22.8931 76.5022 22.8931C76.8538 22.8931 77.1833 22.9407 77.491 23.0359L77.447 26.0901ZM83.3357 20.1904V23.1128H85.3682V25.4419H83.3357V31.3745C83.3357 31.814 83.4199 32.1289 83.5884 32.3193C83.7568 32.5098 84.0791 32.605 84.5552 32.605C84.9067 32.605 85.218 32.5793 85.489 32.5281V34.9341C84.8665 35.1245 84.2256 35.2197 83.5664 35.2197C81.3398 35.2197 80.2046 34.0955 80.1606 31.8469V25.4419H78.4248V23.1128H80.1606V20.1904H83.3357ZM90.1143 23.1128L90.2131 24.4421C91.0554 23.4094 92.1943 22.8931 93.6299 22.8931C95.1606 22.8931 96.2117 23.4973 96.783 24.7058C97.6179 23.4973 98.8081 22.8931 100.354 22.8931C101.643 22.8931 102.602 23.2703 103.232 24.0247C103.862 24.7717 104.177 25.8997 104.177 27.4084V35H100.991V27.4194C100.991 26.7456 100.859 26.2549 100.595 25.9473C100.332 25.6323 99.8665 25.4749 99.2 25.4749C98.2478 25.4749 97.5886 25.929 97.2224 26.8372L97.2334 35H94.0583V27.4304C94.0583 26.7419 93.9229 26.2439 93.6519 25.9363C93.3809 25.6287 92.9194 25.4749 92.2676 25.4749C91.3667 25.4749 90.7148 25.8484 90.312 26.5955V35H87.137V23.1128H90.1143ZM112.098 35.2197C110.355 35.2197 108.934 34.6851 107.835 33.6157C106.744 32.5464 106.198 31.1218 106.198 29.342V29.0344C106.198 27.8406 106.429 26.7749 106.89 25.8374C107.352 24.8926 108.004 24.1675 108.846 23.6621C109.696 23.1494 110.662 22.8931 111.746 22.8931C113.372 22.8931 114.65 23.4058 115.581 24.4312C116.518 25.4565 116.987 26.9104 116.987 28.7927V30.0891H109.417C109.52 30.8655 109.827 31.488 110.34 31.9568C110.86 32.4255 111.516 32.6599 112.307 32.6599C113.53 32.6599 114.486 32.2168 115.174 31.3306L116.734 33.0774C116.258 33.7512 115.614 34.2786 114.801 34.6594C113.988 35.033 113.087 35.2197 112.098 35.2197ZM111.735 25.4639C111.105 25.4639 110.593 25.6763 110.197 26.1011C109.809 26.5259 109.56 27.1338 109.45 27.9248H113.867V27.6721C113.852 26.969 113.662 26.427 113.295 26.0461C112.929 25.658 112.409 25.4639 111.735 25.4639ZM121.722 23.1128L121.821 24.4861C122.67 23.4241 123.809 22.8931 125.238 22.8931C126.497 22.8931 127.435 23.2629 128.05 24.0027C128.665 24.7424 128.98 25.8484 128.995 27.3206V35H125.82V27.3975C125.82 26.7236 125.673 26.2366 125.38 25.9363C125.087 25.6287 124.6 25.4749 123.919 25.4749C123.026 25.4749 122.355 25.8557 121.909 26.6174V35H118.734V23.1128H121.722ZM135.213 20.1904V23.1128H137.246V25.4419H135.213V31.3745C135.213 31.814 135.297 32.1289 135.466 32.3193C135.634 32.5098 135.957 32.605 136.433 32.605C136.784 32.605 137.095 32.5793 137.366 32.5281V34.9341C136.744 35.1245 136.103 35.2197 135.444 35.2197C133.217 35.2197 132.082 34.0955 132.038 31.8469V25.4419H130.302V23.1128H132.038V20.1904H135.213ZM145.452 31.7151C145.452 31.3269 145.258 31.0229 144.87 30.8032C144.489 30.5762 143.874 30.3748 143.024 30.199C140.197 29.6057 138.784 28.4045 138.784 26.5955C138.784 25.5408 139.219 24.6619 140.091 23.9587C140.97 23.2483 142.116 22.8931 143.53 22.8931C145.039 22.8931 146.243 23.2483 147.144 23.9587C148.052 24.6692 148.507 25.592 148.507 26.7273H145.332C145.332 26.2732 145.185 25.8997 144.892 25.6067C144.599 25.3064 144.141 25.1562 143.519 25.1562C142.984 25.1562 142.57 25.2771 142.277 25.5188C141.984 25.7605 141.838 26.0681 141.838 26.4417C141.838 26.7932 142.003 27.0789 142.332 27.2986C142.669 27.511 143.233 27.6978 144.024 27.8589C144.815 28.0127 145.482 28.1885 146.024 28.3862C147.701 29.0015 148.54 30.0671 148.54 31.5833C148.54 32.6672 148.074 33.5461 147.144 34.22C146.214 34.8865 145.013 35.2197 143.541 35.2197C142.545 35.2197 141.658 35.0439 140.882 34.6924C140.113 34.3335 139.509 33.8464 139.069 33.2312C138.63 32.6086 138.41 31.9385 138.41 31.2207H141.42C141.45 31.7847 141.658 32.2168 142.047 32.5171C142.435 32.8174 142.955 32.9675 143.607 32.9675C144.215 32.9675 144.672 32.854 144.98 32.627C145.295 32.3926 145.452 32.0886 145.452 31.7151Z" fill="white"/>
</svg>
