<svg width="18" height="18" viewBox="0 0 18 18" fill="none" xmlns="http://www.w3.org/2000/svg">
<path fill-rule="evenodd" clip-rule="evenodd" d="M8.505 5C8.33653 4.99465 8.16817 4.98631 8 4.975C7.223 4.915 6.558 4.762 6.004 4.517C4.998 4.073 4.145 3.397 4.26 3.138C4.376 2.879 5.51 2.773 6.57 3.247C7.277 3.563 7.922 4.147 8.505 5Z" fill="#E5A807" stroke="#E5A807" stroke-width="0.1" stroke-linejoin="round"/>
<path fill-rule="evenodd" clip-rule="evenodd" d="M9.26001 3.877C8.77001 2.996 8.24401 2.323 7.68001 1.858C7.11701 1.393 6.52501 1.108 5.90401 1.003C5.48201 0.973002 5.12101 1.159 4.82001 1.565C4.52001 1.97 4.33301 2.495 4.26001 3.138C5.13001 3.233 5.90801 3.431 6.59301 3.732C7.27801 4.032 7.67801 4.455 7.79301 5H9.26001V3.877Z" fill="#FFC220" stroke="#FFC220" stroke-width="0.1"/>
<path fill-rule="evenodd" clip-rule="evenodd" d="M9.505 5C9.733 4.991 9.901 4.983 10.01 4.975C10.787 4.915 11.452 4.762 12.006 4.517C13.012 4.073 13.866 3.397 13.75 3.138C13.635 2.879 12.5 2.773 11.44 3.247C10.733 3.563 10.088 4.147 9.505 5Z" fill="#E5A807" stroke="#E5A807" stroke-width="0.1" stroke-linejoin="round"/>
<path fill-rule="evenodd" clip-rule="evenodd" d="M8.75 3.877C9.24 2.996 9.766 2.323 10.33 1.858C10.893 1.393 11.486 1.108 12.106 1.003C12.528 0.973002 12.89 1.159 13.19 1.565C13.49 1.97 13.678 2.495 13.75 3.138C12.88 3.233 12.103 3.431 11.418 3.732C10.732 4.032 10.329 4.455 10.208 5H8.75V3.877Z" fill="#FFC220" stroke="#FFC220" stroke-width="0.1"/>
<path fill-rule="evenodd" clip-rule="evenodd" d="M15.254 5.51L2.55701 5.788L2.74701 7.5H3.50001V15.5H14.5V7.628L15.457 7.341L15.254 5.51Z" fill="#0071CE" stroke="#0071CE"/>
<path d="M3 8.5H15" stroke="#013566"/>
<path fill-rule="evenodd" clip-rule="evenodd" d="M9.75 5.5H8.25V15.5H9.75V5.5Z" fill="#FFC220" stroke="#FFC220"/>
</svg>
