<svg width="858" height="46" viewBox="0 0 858 46" fill="none" xmlns="http://www.w3.org/2000/svg">
<rect x="0.553548" y="0.553548" width="856.893" height="44.2839" stroke="#0072CE" stroke-width="1.1071"/>
<rect x="808.181" y="1.10718" width="49.8194" height="44.2839" fill="#0072CE"/>
<path d="M831.159 28.4079C832.965 28.4079 834.63 27.8241 835.992 26.8511L841.117 31.9757C841.355 32.2136 841.668 32.3325 842.003 32.3325C842.706 32.3325 843.203 31.7919 843.203 31.1C843.203 30.7757 843.095 30.4621 842.857 30.2351L837.765 25.1321C838.836 23.7266 839.473 21.9859 839.473 20.0939C839.473 15.5207 835.733 11.7799 831.159 11.7799C826.597 11.7799 822.845 15.5098 822.845 20.0939C822.845 24.6672 826.586 28.4079 831.159 28.4079ZM831.159 26.6132C827.592 26.6132 824.64 23.6617 824.64 20.0939C824.64 16.5261 827.592 13.5746 831.159 13.5746C834.727 13.5746 837.679 16.5261 837.679 20.0939C837.679 23.6617 834.727 26.6132 831.159 26.6132Z" fill="white"/>
</svg>
